<svg xmlns="http://www.w3.org/2000/svg" xmlns:xlink="http://www.w3.org/1999/xlink" preserveAspectRatio="xMidYMid meet" viewBox="4.625 3.31 555.875 520.347" width="551.88" height="516.35"><style><![CDATA[.B{fill-opacity:0}.C{stroke:#000}.D{stroke-opacity:0}.E{fill:#fff}]]></style><defs><path d="M287 501.2l-8.4-4-4.5 2c-9.2 4-23.3 8.8-32.9 11.2-15.4 3.8-26.4 5.1-45.2 5.1s-29.8-1.3-45.2-5.1c-24.4-6.1-51.1-18.6-69.8-32.7-7.6-5.8-27.1-24.8-34-33.2-20-24.5-35.2-59.7-40.1-93-1.7-11.6-1.7-41.4 0-53 3-20.3 9.8-41.8 19.1-60 11.1-21.6 19.8-33.3 38.1-51C77 175 82.9 170.4 95 163.1c4.6-2.9 8.8-5.7 9.1-6.4.4-.7 1.2-3.9 1.9-7.2 2.9-14.2 14.7-41.5 24.7-56.9 14.3-22.1 35.9-43.7 57.9-57.9 48.3-31.2 111.7-39 165.9-20.5 41.3 14.2 76.3 41.4 100.5 78.3 10.5 16.1 21.2 41.2 25.6 60 2.1 9.1 4.3 23.9 4.4 29 .1 3.5.6 4.4 4.6 7.5 6.9 5.4 24.3 23.6 31 32.5 11.5 15.2 18 27.3 25.5 47.5 8.2 21.8 11.4 39.6 11.4 64.5s-3.2 42.7-11.4 64.5c-10.8 28.8-21.7 45.8-43.5 67.6-13 13-23.2 21.1-36.6 29.1-18.9 11.3-44.1 20.4-66.5 23.9-9 1.4-37.3 2.6-43 1.8l-12-1.5c-17.2-2.1-38.7-8.7-57.5-17.7zm262-167.7c0-48.4-18.9-93.4-53.8-127.8l-8.9-8.9-.7 4.8c-.3 2.6-.6 7-.6 9.8-.1 18.2-8.1 48-19 70.1-10.2 20.8-21.1 35.9-37.9 52.5-12.1 11.9-21.7 19.5-34.1 26.9-12.1 7.1-11.7 6.7-14.5 16.4-6.9 24-19.9 49.3-34.5 67.2-7.3 8.9-26.6 27.7-34.7 33.7-3.4 2.5-9.6 6.5-13.7 8.9-4.2 2.4-7.5 4.7-7.6 5 0 1.1 17.7 8.5 28 11.7 9.9 3.1 20.4 5.5 30.5 7.1 10 1.5 36.6 1.2 47.8-.4 53.2-8 99-37.9 126.9-82.7 17.5-28.2 26.8-60.9 26.8-94.3zM269.8 491.6l-3.8-2.5c-21.1-14.2-43.4-37.9-56.7-60.1-11.2-18.6-21.8-48.2-23.9-66.5l-.6-6-7.1-5c-3.9-2.7-12-9.7-18-15.5-17.6-16.9-30.4-34.6-40.6-56.3-9.1-19.2-13.3-33.2-17.2-56.7-1.4-8.5-1.8-37.1-.6-47.3l.8-6.8-2.8 1.8C46.2 204.5 14 262.8 14 325c0 48.3 19.1 94.2 53.4 128.6 28.3 28.2 62.8 45.4 104 51.9 11.5 1.8 36.6 1.8 48.5 0 16.4-2.5 31.6-6.6 46.7-12.6.2-.1 1.28-.52 3.2-1.3zm100.4-118c-25.3 10.9-49.1 15.7-77.2 15.7-31.9 0-57.6-5.9-85.5-19.7-7.1-3.6-13.1-6.4-13.2-6.2-.1.1.7 4 1.8 8.7 10.9 46.2 36.8 84.1 75.2 110 4 2.7 7.4 4.9 7.6 4.9s4-2.1 8.5-4.7c37.6-21.7 67.2-57.9 81.2-99.6 2.8-8.3 3.1-9.8 1.6-9.1zm4.5-12.5l1.3-7.3c1.8-11.2 2.4-38.7 1-49.2-6.8-51.6-32.6-96.2-72.4-125.6l-9.9-7.2-4.6 2.2c-34 16.4-64.3 47.6-81.1 83.5-11.7 24.9-17 49-17 77.4v15.9l8 4.6c20.9 12.1 47.2 21.2 68 23.5l13 1.5c5.5.7 28.8-.3 37.6-1.4 15.3-2.1 37.8-8.7 49.5-14.6l6.6-3.3zM466.1 258c6.9-20 9.9-36.6 10.2-56.6l.2-11.9-7-4.8c-14.5-9.8-38.4-20.2-58-25.1-24.1-6.1-58-6.1-82 0-3.3.8-10.3 2.9-15.6 4.6l-9.6 3.1 6.1 4.6c8 5.9 27.3 24.7 34.6 33.6 20 24.5 35.2 59.5 40.2 93 1.5 10.5 1.6 43.2.1 51.8-.5 3.1-.9 5.7-.7 5.7s2.6-1.4 5.5-3c14.8-8.8 37.7-29.8 49.8-45.8 10.7-14.1 20.5-32.5 26.2-49.2zm-227.7-56.6c13.4-13.3 23.3-21.2 37.6-29.7l9.4-5.6-11.4-5.4c-49.2-23.2-104.7-23.7-153.7-1.2-9.3 4.2-8.5 2.8-10.3 19-6.4 59.2 18 119.3 64.5 158.9l8 6.8.6-14c.4-7.7 1.2-17.9 1.9-22.8 3.1-22.8 12.6-49.9 24.3-69.4 8-13.4 16.1-23.6 29.1-36.6zm76.6-187c-37.4-4.4-72.7 2.1-107.2 19.8-33.1 17.1-60.5 44.5-77.6 77.6-6.4 12.5-12.9 28.7-14.7 37l-.7 3.3 3.9-1.6c8.9-3.9 23-8.6 32.1-10.9 15.4-3.8 26.4-5.1 45.2-5.1 9.6 0 21.6.6 26.5 1.4 20.7 3 41.8 9.8 61 19.6l12 6.2 10.5-3.9c12.4-4.6 26-8.1 38.5-9.9 11.6-1.7 40.4-1.7 52 0 23.9 3.5 50.5 12.9 70.5 24.9 4.6 2.8 8.5 5 8.6 4.9s-.4-4.2-1.1-9.2c-2-14.1-8.1-34-14.9-48.8C433 62.1 377.9 22 315 14.4z" id="A"/><path d="M394.5 379c2.4 0 2.5.2 2.5 6.5v6.5h13v-6.5c0-6.3.1-6.5 2.5-6.5h2.5v29h-2.5c-2.4 0-2.5-.2-2.5-6.5V395h-13v6.5c0 6.3-.1 6.5-2.5 6.5H392v-29h2.5z" id="B"/><path d="M428.8 379c9.8 0 12.2 1.7 12.2 8.5 0 3.5-.5 4.8-2.4 6.2l-2.4 1.8 3.5 6.3 3.5 6.2h-3.1c-2.8 0-3.4-.6-6.1-6-2.5-4.9-3.5-6-5.5-6-2.4 0-2.5.3-2.5 6s-.1 6-2.5 6H421v-29h7.8zm.8 3.3l-3.6-.6v11.6l3.6-.6c2-.3 4.2-1.1 5-1.8.8-.6 1.4-2.2 1.4-3.4 0-2.9-1.9-4.5-6.4-5.2z" id="C"/><path d="M445.5 382c-3.3 0-4.5-.4-4.5-1.5 0-1.2 2-1.5 12-1.5s12 .3 12 1.5c0 1.1-1.2 1.5-4.5 1.5H456v26h-6v-26h-4.5z" id="D"/><path d="M474 386c5.9 0 9 2.9 9 8.3v3.7h-7c-3.8 0-7 .3-7 .6 0 1.4 2.2 4.4 3.8 5.3 1.2.7 2.8.5 5-.6 4.3-2.1 6.5-.4 3.7 2.7-1.4 1.5-3.1 2-7.1 2-4.7 0-5.5-.3-7.9-3.2-2.4-2.8-2.7-3.9-2.3-8.5.6-7.3 3.5-10.3 9.8-10.3zm-4 7c-1 1.9-.7 2 3.5 2 3.2 0 4.5-.4 4.5-1.4 0-.8-.7-2.2-1.6-3-1.8-1.9-4.7-.8-6.4 2.4z" id="E"/><path d="M495.6 386c4.6 0 7.8 2.1 8.9 5.8.5 1.8.2 2.2-1.6 2.2-1.2 0-3.3-1.2-4.6-2.6-2.2-2.4-2.6-2.5-4.6-1.1-4 2.6-4.1 10.7-.1 13.4 1.8 1.2 2.4 1.1 4.7-.7 2.7-2.1 6.7-2.7 6.7-1 0 .6-1.1 2.2-2.5 3.5-3.4 3.5-10.6 3.5-14 .1-3-3-4-8.4-2.5-13s4.4-6.6 9.6-6.6z" id="F"/><path d="M509.5 378c2.3 0 2.5.4 2.5 4.3v4.2l4.8-.3c7.3-.5 8.2.8 8.2 12.4 0 9.3 0 9.4-2.5 9.4-2.4 0-2.4-.2-2.7-8.7s-.4-8.8-2.7-9.1c-3.8-.6-5.1 2.2-5.1 10.5 0 7.1-.1 7.3-2.5 7.3H507v-30h2.5z" id="G"/><path d="M43.5 352c7.8 0 9.5.3 9.5 1.5s-1.4 1.5-7 1.5h-7v9h6c4.7 0 6 .3 6 1.5s-1.3 1.5-6 1.5h-6v11h7c5.6 0 7 .3 7 1.5s-1.7 1.5-9.5 1.5H34v-29h9.5z" id="H"/><path d="M64.4 359.2l4.6.3v-4.2c0-3.9.2-4.3 2.5-4.3H74v29.8l-7.4.1c-5.9.1-7.6-.3-9-1.8-2.7-3-3.8-8.5-2.6-12.9 1.5-5.7 3.9-7.5 9.4-7zm.1 3.8c-3.2 0-4.5 2-4.5 7s1.3 7 4.5 7c1.2 0 2.6-.5 3.3-1.2 1.6-1.6 1.6-10 0-11.6-.7-.7-2.1-1.2-3.3-1.2z" id="I"/><path d="M80.5 355c-3.3 0-4.5-.4-4.5-1.5 0-1.2 2-1.5 12-1.5s12 .3 12 1.5c0 1.1-1.2 1.5-4.5 1.5H91v26h-6v-26h-4.5z" id="J"/><path d="M101.6 362.1c2.2-2.7 3.2-3.1 7.4-3.1 4.1 0 5.2.4 6.9 2.6 1.2 1.5 2.1 4.1 2.1 6v3.4h-7c-3.8 0-7 .3-7 .6 0 1.4 2.2 4.4 3.8 5.3 1.2.7 2.8.5 5-.6 2.6-1.3 3.6-1.3 4.5-.4 2.1 2.2-2.7 5.1-8.3 5.1-4.2 0-5.2-.4-7.4-3.1-2-2.4-2.6-4.1-2.6-7.9s.6-5.5 2.6-7.9zm3.6 3.5c-1.1 2.4-1.1 2.4 3.3 2.4 3.3 0 4.5-.4 4.5-1.4 0-1.9-3.8-4.6-5.5-4-.7.3-1.7 1.6-2.3 3z" id="K"/><path d="M122.9 361.6c4.8-5.1 16.1-2.7 16.1 3.4 0 1.5-.7 2-2.5 2-1.5 0-2.5-.6-2.5-1.5 0-1.8-2.8-3.4-5-2.8-1 .3-2.3 1.6-2.9 2.9-3.2 7.2 2.2 15.1 7 10.3 2.2-2.2 5.9-2.5 5.9-.4 0 2.9-4.2 5.5-9 5.5-3.7 0-5.1-.5-7.1-2.6s-2.4-3.6-2.4-8.4.4-6.3 2.4-8.4z" id="L"/><path d="M144.5 351c2.3 0 2.5.4 2.5 4.3v4.2l4.6-.3c7.2-.6 8.4 1.1 8.4 12.5 0 9.2 0 9.3-2.5 9.3-2.4 0-2.4-.2-2.7-8.7-.3-8.3-.4-8.8-2.6-9.1-4.2-.6-5.2 1.4-5.2 9.9 0 7.8 0 7.9-2.5 7.9H142v-30h2.5z" id="M"/><path d="M212.5 296.5c4.7-4.8 14.2-2.8 16 3.3 1 3.4-3.8 3.1-5.3-.4-1.6-3.3-6.1-3-8 .6-1.5 2.9-1 10.3.8 12.5 2 2.4 5.9 1.9 7.2-1 .7-1.7 1.9-2.5 3.5-2.5 2.1 0 2.3.4 1.8 2.3-1.1 3.8-4.3 5.7-9.5 5.7-4.1 0-5.2-.4-6.9-2.6-1.6-2.1-2.1-4.1-2.1-9.1 0-5.5.4-6.7 2.5-8.8z" id="N"/><path d="M232.1 302.6c1.6-2.1 2.9-2.6 6.4-2.6s4.8.5 6.4 2.6c1.2 1.5 2.1 4.1 2.1 5.9s-.9 4.4-2.1 5.9c-1.6 2.1-2.9 2.6-6.4 2.6s-4.8-.5-6.4-2.6c-1.2-1.5-2.1-4.1-2.1-5.9s.9-4.4 2.1-5.9zm3.4 9c1.7 2.6 3.5 3 5.3 1.2 1.7-1.7 1.5-7.3-.3-8.8-3.6-3-7.8 3.4-5 7.6z" id="O"/><path d="M251.4 300.8c.6-.4 2.8-.8 4.9-.8 3.6 0 3.7-.1 3.7-3.5 0-2.8.4-3.5 2-3.5 1.9 0 2 .7 2 12v12h-5.7c-3.2 0-6.3-.4-6.9-.8-1.8-1.1-3.4-4.9-3.4-7.7s1.6-6.6 3.4-7.7zm1.6 7.6c0 4.9 3.4 7.3 5.9 4.2 1.7-2 1-7.7-1.1-8.9-2.4-1.6-4.8.8-4.8 4.7z" id="P"/><path d="M274.4 300c5.1 0 7.6 2.2 7.6 6.8v3.2h-5.5c-5.7 0-6.7.8-3.9 3.1 1.2 1 2.2 1 4.7.1 3.7-1.4 5.7-.1 3.7 2.3-1.8 2.2-10.2 2-12.3-.3-2.2-2.4-2.2-10-.1-13 1.2-1.7 2.5-2.2 5.8-2.2zm0 7c2 0 3.6-.4 3.6-.9 0-1.9-3.1-3.5-4.8-2.5-3 2-2.5 3.4 1.2 3.4z" id="Q"/><path d="M288.4 312.6c.3.9 1.5 1.4 2.6 1.2 2.4-.3 2.8-2 .8-2.9-5.8-2.6-7.3-3.7-7.6-5.7-.2-1.3.2-3 .8-3.8 1.7-1.9 9.4-1.8 11.4.2 3.6 3.5.2 6.2-3.5 2.8-1.1-1-2.5-1.4-3.5-1-2.3.9-.9 2.2 4.1 3.8 3.3 1.1 4.1 1.8 4.3 4.1.5 4.2-1.3 5.7-6.9 5.7-3.8 0-5.1-.4-6.3-2.2-.9-1.2-1.6-2.6-1.6-3 0-1.5 4.8-.8 5.4.8z" id="R"/><path d="M308.5 294c6 0 7.5.3 7.5 1.5s-1.3 1.5-5.5 1.5H305v7h5c3.8 0 5 .4 5 1.5s-1.2 1.5-5 1.5h-5v5c0 4.3-.3 5-2 5-1.9 0-2-.7-2-11.5V294h7.5z" id="S"/><path d="M319.1 302.6c1.6-2.1 2.9-2.6 6.2-2.6 4.8 0 5.9.6 7.6 3.7 2 4 .9 10.4-2.3 12.5-.6.4-3 .8-5.3.8-3.3 0-4.6-.5-6.2-2.6-1.2-1.5-2.1-4.1-2.1-5.9s.9-4.4 2.1-5.9zm2.9 5.8c0 5.7 3.8 7.4 6.6 3.1 1.4-2.1 1.5-3.1.6-5.1-2.4-5.1-7.2-3.8-7.2 2z" id="T"/><path d="M341 300c5.5 0 7.1 2.3 2.5 3.4-2.3.6-2.5 1-2.5 7.1 0 6.3-.1 6.5-2.5 6.5-2.5 0-2.5-.1-2.5-8.5V300h5z" id="U"/><path d="M353.1 300c3.8 0 3.9-.1 3.9-3.5 0-3.1.3-3.5 2.5-3.5h2.5v24h-6.5c-6.2 0-6.5-.1-8.1-3.2-1.8-3.4-1.5-9.8.6-12.3.7-.9 2.9-1.5 5.1-1.5zm-1.1 12.5c2.5 3 4.5 1.3 4.8-3.8.2-3.6-.1-4.9-1.3-5.3-3.7-1.5-6.4 5.6-3.5 9.1z" id="V"/><path d="M219.5 71c5.9 0 8.9 1.7 10.3 6 1.1 2.9 1 3-1.7 3-2 0-3.1-.7-3.9-2.5-1.6-3.4-7.5-3.6-9.6-.2-2.2 3.5-2.8 8.2-1.6 12.6 1.2 4.6 3.7 6.4 8.3 5.9 2.8-.3 3.2-.7 3.5-3.5.3-3.1.1-3.3-2.7-3.3-2.1 0-3.1-.5-3.1-1.5 0-1.2 1.3-1.5 6-1.5h6v4.8c0 5.3-.5 6.4-3.7 8.1-3.3 1.7-12.4 1.4-15.2-.5-3.1-2.2-5.1-7.3-5.1-12.9 0-9.7 4.2-14.5 12.5-14.5z" id="W"/><path d="M247 85c0-1-.9-2.4-2-3-1.5-.8-2.4-.6-4 1-2.6 2.6-6 2.7-6 .1 0-3 3.9-5.1 9.1-5.1 6.5 0 7.5 1.6 8.1 12.7l.5 9.1-7.8.1c-7 .1-8-.2-9.3-2.1-3.7-5.3 0-10.8 7.2-10.8 3.5 0 4.2-.3 4.2-2zm-2.4 5c-3 0-5.7 2.5-5 4.5.6 1.6 3.1 1.9 5.8.9.9-.3 1.6-1.7 1.6-3 0-1.9-.5-2.4-2.4-2.4z" id="X"/><path d="M263.7 78.1c4.2 0 8.2.4 8.9 1 .8.7 1.4.7 1.9-.1 1-1.7 10.1-1.2 11.6.6.8 1 1.5 5.2 1.7 11l.4 9.4h-6.1l-.6-17.5h-6l-.6 17.5h-5.8l-.6-17.5h-6l-.6 17.5H256V78.2l7.7-.1z" id="Y"/><path d="M300.3 78c5.9 0 8.7 2.3 9.4 7.8l.6 4.2h-7.2c-7.4 0-8.5.8-5.8 4.2 1.9 2.4 4.3 2.8 6.6 1.2 2.1-1.5 6.1-1.1 6.1.6 0 2-4.7 4-9.3 4-3.8 0-5.3-.5-7.2-2.5-2.1-2-2.5-3.4-2.5-8.3 0-7.9 2.8-11.2 9.3-11.2zm-4.3 8c0 .6 2 1 4.5 1s4.5-.3 4.5-.6c0-1.4-2.1-4.2-3.5-4.8-1.6-.6-5.5 2.5-5.5 4.4z" id="Z"/><path d="M315.5 74c-3.3 0-4.5-.4-4.5-1.5 0-1.2 2-1.5 12-1.5s12 .3 12 1.5c0 1.1-1.2 1.5-5 1.5h-5v26h-5V74h-4.5z" id="a"/><path d="M336.6 81.1c2.2-2.7 3.2-3.1 7.4-3.1 4.1 0 5.2.4 6.9 2.6 1.2 1.5 2.1 4.1 2.1 6V90h-7c-3.8 0-7 .3-7 .6 0 1.4 2.2 4.4 3.8 5.3 1.2.7 2.8.5 5-.6 2.6-1.3 3.6-1.3 4.5-.4 2.1 2.2-2.7 5.1-8.3 5.1-4.2 0-5.2-.4-7.4-3.1-2-2.4-2.6-4.1-2.6-7.9s.6-5.5 2.6-7.9zm3.6 3.5c-1.1 2.4-1.1 2.4 3.3 2.4 3.3 0 4.5-.4 4.5-1.4 0-1.9-3.8-4.6-5.5-4-.7.3-1.7 1.6-2.3 3z" id="b"/><path d="M357.9 80.6c4.8-5.1 16.1-2.7 16.1 3.4 0 1.5-.7 2-2.5 2-1.5 0-2.5-.6-2.5-1.5 0-1.8-2.8-3.4-5-2.8-1 .3-2.3 1.6-2.9 2.9-3.2 7.2 2.2 15.1 7 10.3 2.2-2.2 5.9-2.5 5.9-.4 0 2.9-4.2 5.5-9 5.5-3.7 0-5.1-.5-7.1-2.6s-2.4-3.6-2.4-8.4.4-6.3 2.4-8.4z" id="c"/><path d="M379.5 70c2.3 0 2.5.4 2.5 4.3v4.2l4.9-.3c6.9-.5 8.1 1.5 8.1 13 0 8.7 0 8.8-2.5 8.8-2.4 0-2.5-.2-2.5-7.4 0-8.9-.5-10.6-3.4-10.6-3.7 0-4.6 1.9-4.6 10.2 0 7.7 0 7.8-2.5 7.8H377V70h2.5z" id="d"/></defs><use xlink:href="#A" class="E"/><use xlink:href="#A" class="B C D"/><use xlink:href="#B" class="B" href="#A"/><use xlink:href="#B" class="B C D" href="#A"/><use xlink:href="#B" class="E"/><use xlink:href="#B" class="B C D"/><use xlink:href="#D" class="B" href="#B"/><use xlink:href="#D" class="B C D" href="#B"/><use xlink:href="#C" class="E"/><use xlink:href="#C" class="B C D"/><use xlink:href="#F" class="B" href="#C"/><use xlink:href="#F" class="B C D" href="#C"/><use xlink:href="#D" class="E"/><use xlink:href="#D" class="B C D"/><use xlink:href="#H" class="B" href="#D"/><use xlink:href="#H" class="B C D" href="#D"/><use xlink:href="#E" class="E"/><use xlink:href="#E" class="B C D"/><use xlink:href="#J" class="B" href="#E"/><use xlink:href="#J" class="B C D" href="#E"/><use xlink:href="#F" class="E"/><use xlink:href="#F" class="B C D"/><use xlink:href="#L" class="B" href="#F"/><use xlink:href="#L" class="B C D" href="#F"/><use xlink:href="#G" class="E"/><use xlink:href="#G" class="B C D"/><use xlink:href="#N" class="B" href="#G"/><use xlink:href="#N" class="B C D" href="#G"/><use xlink:href="#H" class="E"/><use xlink:href="#H" class="B C D"/><use xlink:href="#P" class="B" href="#H"/><use xlink:href="#P" class="B C D" href="#H"/><use xlink:href="#I" class="E"/><use xlink:href="#I" class="B C D"/><use xlink:href="#R" class="B" href="#I"/><use xlink:href="#R" class="B C D" href="#I"/><use xlink:href="#J" class="E"/><use xlink:href="#J" class="B C D"/><use xlink:href="#T" class="B" href="#J"/><use xlink:href="#T" class="B C D" href="#J"/><use xlink:href="#K" class="E"/><use xlink:href="#K" class="B C D"/><use xlink:href="#V" class="B" href="#K"/><use xlink:href="#V" class="B C D" href="#K"/><use xlink:href="#L" class="E"/><use xlink:href="#L" class="B C D"/><use xlink:href="#X" class="B" href="#L"/><use xlink:href="#X" class="B C D" href="#L"/><use xlink:href="#M" class="E"/><use xlink:href="#M" class="B C D"/><use xlink:href="#Z" class="B" href="#M"/><use xlink:href="#Z" class="B C D" href="#M"/><use xlink:href="#N" class="E"/><use xlink:href="#N" class="B C D"/><use xlink:href="#b" class="B" href="#N"/><use xlink:href="#b" class="B C D" href="#N"/><use xlink:href="#O" class="E"/><use xlink:href="#O" class="B C D"/><use xlink:href="#d" class="B" href="#O"/><use xlink:href="#d" class="B C D" href="#O"/><use xlink:href="#P" class="E"/><use xlink:href="#P" class="B C D"/><use xlink:href="#f" class="B" href="#P"/><use xlink:href="#f" class="B C D" href="#P"/><use xlink:href="#Q" class="E"/><use xlink:href="#Q" class="B C D"/><use xlink:href="#h" class="B" href="#Q"/><use xlink:href="#h" class="B C D" href="#Q"/><use xlink:href="#R" class="E"/><use xlink:href="#R" class="B C D"/><use xlink:href="#j" class="B" href="#R"/><use xlink:href="#j" class="B C D" href="#R"/><use xlink:href="#S" class="E"/><use xlink:href="#S" class="B C D"/><use xlink:href="#l" class="B" href="#S"/><use xlink:href="#l" class="B C D" href="#S"/><use xlink:href="#T" class="E"/><use xlink:href="#T" class="B C D"/><use xlink:href="#n" class="B" href="#T"/><use xlink:href="#n" class="B C D" href="#T"/><use xlink:href="#U" class="E"/><use xlink:href="#U" class="B C D"/><use xlink:href="#p" class="B" href="#U"/><use xlink:href="#p" class="B C D" href="#U"/><use xlink:href="#V" class="E"/><use xlink:href="#V" class="B C D"/><use xlink:href="#r" class="B" href="#V"/><use xlink:href="#r" class="B C D" href="#V"/><use xlink:href="#W" class="E"/><use xlink:href="#W" class="B C D"/><use xlink:href="#t" class="B" href="#W"/><use xlink:href="#t" class="B C D" href="#W"/><use xlink:href="#X" class="E"/><use xlink:href="#X" class="B C D"/><use xlink:href="#v" class="B" href="#X"/><use xlink:href="#v" class="B C D" href="#X"/><use xlink:href="#Y" class="E"/><use xlink:href="#Y" class="B C D"/><use xlink:href="#x" class="B" href="#Y"/><use xlink:href="#x" class="B C D" href="#Y"/><use xlink:href="#Z" class="E"/><use xlink:href="#Z" class="B C D"/><use xlink:href="#z" class="B" href="#Z"/><use xlink:href="#z" class="B C D" href="#Z"/><use xlink:href="#a" class="E"/><use xlink:href="#a" class="B C D"/><use xlink:href="#AB" class="B" href="#a"/><use xlink:href="#AB" class="B C D" href="#a"/><use xlink:href="#b" class="E"/><use xlink:href="#b" class="B C D"/><use xlink:href="#AD" class="B" href="#b"/><use xlink:href="#AD" class="B C D" href="#b"/><use xlink:href="#c" class="E"/><use xlink:href="#c" class="B C D"/><use xlink:href="#AF" class="B" href="#c"/><use xlink:href="#AF" class="B C D" href="#c"/><use xlink:href="#d" class="E"/><use xlink:href="#d" class="B C D"/><use xlink:href="#AH" class="B" href="#d"/><use xlink:href="#AH" class="B C D" href="#d"/></svg>