<svg width="64" height="50" viewBox="0 0 64 50" fill="none" xmlns="http://www.w3.org/2000/svg">
<circle opacity="0.5" cx="37" cy="33" r="17" fill="#4560F5"/>
<path d="M44.226 41.1624H38.2108V3.06485C38.2108 2.87495 38.1408 2.6917 38.0142 2.55013C37.8877 2.40857 37.7134 2.3186 37.5247 2.29743L17.2136 0.00486193C17.1055 -0.00732128 16.9961 0.00345491 16.8924 0.0364858C16.7888 0.0695167 16.6933 0.124058 16.6122 0.196541C16.5311 0.269024 16.4662 0.357816 16.4218 0.457107C16.3773 0.556398 16.3544 0.663951 16.3544 0.77273V2.29213H7.56057C7.35563 2.29213 7.15909 2.37354 7.01418 2.51845C6.86927 2.66337 6.78786 2.85991 6.78786 3.06485V41.1624H0.772703C0.567769 41.1624 0.371229 41.2438 0.22632 41.3887C0.0814098 41.5336 0 41.7302 0 41.9351C0 42.1401 0.0814098 42.3366 0.22632 42.4815C0.371229 42.6264 0.567769 42.7079 0.772703 42.7079H16.3544V44.2273C16.3544 44.4322 16.4358 44.6287 16.5807 44.7737C16.7256 44.9186 16.9221 45 17.1271 45C17.1566 45.0002 17.1861 44.9986 17.2154 44.9951L37.4823 42.7079H44.2273C44.4322 42.7079 44.6288 42.6264 44.7737 42.4815C44.9186 42.3366 45 42.1401 45 41.9351C45 41.7302 44.9186 41.5336 44.7737 41.3887C44.6288 41.2438 44.4322 41.1624 44.2273 41.1624H44.226ZM8.33327 3.83758H16.3544V5.82459H11.0925C10.8875 5.82459 10.691 5.906 10.5461 6.05091C10.4012 6.19583 10.3198 6.39237 10.3198 6.59731V41.1624H8.33283L8.33327 3.83758ZM11.8656 41.1624V7.37004H16.3544V41.1624H11.8656ZM17.8998 1.6373L36.6654 3.75677V41.245L17.8998 43.3644V1.6373Z" fill="#1C1D5D"/>
</svg>
