<svg width="24" height="25" viewBox="0 0 24 25" fill="none" xmlns="http://www.w3.org/2000/svg">
<circle cx="12" cy="12.1304" r="12" fill="#1C1D5D"/>
<g clip-path="url(#clip0)">
<path d="M12 4.80139C8.14023 4.80154 5.00014 7.93729 5 11.792C5.00014 15.6467 8.14023 18.7826 12 18.7826C15.8598 18.7826 18.9999 15.6467 19 11.792C18.9999 7.93729 15.8598 4.80154 12 4.80139ZM16.6056 8.10118C17.4038 9.09046 17.8896 10.3405 17.9121 11.7016C17.6464 11.6479 16.521 11.4374 15.1762 11.4374C14.7424 11.4374 14.2858 11.4595 13.8281 11.5156C13.7895 11.4221 13.7505 11.3279 13.7103 11.2335C13.5913 10.9542 13.4638 10.6773 13.3309 10.4048C15.4 9.5521 16.399 8.36875 16.6056 8.10118ZM12 5.89535C13.4913 5.89535 14.8548 6.4497 15.8962 7.36259C15.7311 7.5877 14.8373 8.70462 12.8418 9.45925C11.9184 7.77022 10.9069 6.37259 10.6663 6.04784C11.0952 5.94835 11.5414 5.89535 12 5.89535ZM9.45974 6.46919C9.66363 6.74961 10.6759 8.16226 11.6231 9.83786C9.08084 10.5059 6.82303 10.5497 6.27836 10.5497C6.25612 10.5497 6.23692 10.5497 6.2206 10.5497C6.61177 8.74549 7.83107 7.2462 9.45974 6.46919ZM6.08616 11.8011C6.08616 11.7526 6.08732 11.7039 6.08876 11.6553C6.12414 11.6558 6.17598 11.6564 6.24385 11.6564C6.97739 11.6564 9.52487 11.5953 12.1499 10.8162C12.3092 11.1281 12.4611 11.4443 12.6017 11.7602C12.536 11.7793 12.4703 11.7986 12.4053 11.8196C9.44992 12.7743 7.82487 15.3013 7.57506 15.7142C6.64917 14.671 6.08616 13.3008 6.08616 11.8011ZM12 17.707C10.6431 17.707 9.39217 17.2475 8.39307 16.4774C8.56187 16.1462 9.78782 13.9383 13.0271 12.8109C13.0294 12.8102 13.0317 12.8093 13.0339 12.8084C13.8456 14.9233 14.1897 16.6981 14.2845 17.2478C13.5813 17.5434 12.8094 17.707 12 17.707ZM15.3492 16.6657C15.2699 16.2109 14.9514 14.5474 14.2156 12.5188C14.6283 12.4549 15.0299 12.4297 15.4062 12.4297C16.6421 12.4295 17.609 12.7001 17.8337 12.7684C17.5666 14.3801 16.6441 15.7736 15.3492 16.6657Z" fill="white"/>
</g>
<defs>
<clipPath id="clip0">
<rect width="14" height="14" fill="white" transform="translate(5 4.79272)"/>
</clipPath>
</defs>
</svg>
