<svg width="115" height="38" viewBox="0 0 115 38" fill="none" xmlns="http://www.w3.org/2000/svg">
<rect width="38" height="38" rx="19" fill="white"/>
<rect width="38" height="38" rx="19" fill="url(#paint0_linear)"/>
<path fill-rule="evenodd" clip-rule="evenodd" d="M11.0557 11.9175C10.941 11.7173 11.0091 11.4613 11.2078 11.3458L18.5841 7.05614C18.7829 6.94057 19.037 7.00915 19.1517 7.20932L22.0605 12.2839L24.3993 10.9238C24.598 10.8082 24.8521 10.8768 24.9669 11.077L26.1095 13.0704C26.2242 13.2706 26.1561 13.5265 25.9574 13.6421L23.6186 15.0022L26.527 20.0762C26.6417 20.2764 26.5736 20.5324 26.3749 20.6479L21.697 23.3684C21.4982 23.4839 21.2441 23.4153 21.1294 23.2152L19.9868 21.2218C19.872 21.0216 19.9401 20.7656 20.1389 20.6501L22.4779 19.2898L17.8034 11.1346L12.7659 14.0641C12.5672 14.1796 12.3131 14.111 12.1983 13.9109L11.0557 11.9175ZM18.0132 17.7786C18.1279 17.9788 18.0598 18.2347 17.8611 18.3503L15.5223 19.7106L20.1965 27.8653L25.2341 24.9358C25.4328 24.8202 25.6869 24.8888 25.8017 25.0889L26.9443 27.0824C27.059 27.2825 26.9909 27.5385 26.7922 27.654L19.4158 31.9439C19.217 32.0594 18.9629 31.9908 18.8482 31.7907L15.9397 26.7166L13.6009 28.0766C13.4021 28.1921 13.148 28.1235 13.0333 27.9234L11.8907 25.93C11.7759 25.7298 11.844 25.4738 12.0428 25.3583L14.3816 23.9981L11.4732 18.9241C11.3585 18.724 11.4265 18.468 11.6253 18.3524L16.303 15.632C16.5017 15.5164 16.7558 15.585 16.8706 15.7852L18.0132 17.7786Z" fill="white"/>
<path d="M51.016 23.12C50.168 23.12 49.4 22.936 48.712 22.568C48.032 22.192 47.496 21.676 47.104 21.02C46.72 20.364 46.528 19.624 46.528 18.8C46.528 17.976 46.724 17.236 47.116 16.58C47.508 15.924 48.044 15.412 48.724 15.044C49.412 14.668 50.18 14.48 51.028 14.48C51.716 14.48 52.344 14.6 52.912 14.84C53.48 15.08 53.96 15.428 54.352 15.884L53.344 16.832C52.736 16.176 51.988 15.848 51.1 15.848C50.524 15.848 50.008 15.976 49.552 16.232C49.096 16.48 48.74 16.828 48.484 17.276C48.228 17.724 48.1 18.232 48.1 18.8C48.1 19.368 48.228 19.876 48.484 20.324C48.74 20.772 49.096 21.124 49.552 21.38C50.008 21.628 50.524 21.752 51.1 21.752C51.988 21.752 52.736 21.42 53.344 20.756L54.352 21.716C53.96 22.172 53.476 22.52 52.9 22.76C52.332 23 51.704 23.12 51.016 23.12ZM58.5884 23.084C57.9404 23.084 57.3564 22.944 56.8364 22.664C56.3164 22.384 55.9084 21.996 55.6124 21.5C55.3244 20.996 55.1804 20.428 55.1804 19.796C55.1804 19.164 55.3244 18.6 55.6124 18.104C55.9084 17.608 56.3164 17.22 56.8364 16.94C57.3564 16.66 57.9404 16.52 58.5884 16.52C59.2444 16.52 59.8324 16.66 60.3524 16.94C60.8724 17.22 61.2764 17.608 61.5644 18.104C61.8604 18.6 62.0084 19.164 62.0084 19.796C62.0084 20.428 61.8604 20.996 61.5644 21.5C61.2764 21.996 60.8724 22.384 60.3524 22.664C59.8324 22.944 59.2444 23.084 58.5884 23.084ZM58.5884 21.8C59.1404 21.8 59.5964 21.616 59.9564 21.248C60.3164 20.88 60.4964 20.396 60.4964 19.796C60.4964 19.196 60.3164 18.712 59.9564 18.344C59.5964 17.976 59.1404 17.792 58.5884 17.792C58.0364 17.792 57.5804 17.976 57.2204 18.344C56.8684 18.712 56.6924 19.196 56.6924 19.796C56.6924 20.396 56.8684 20.88 57.2204 21.248C57.5804 21.616 58.0364 21.8 58.5884 21.8ZM69.9587 14.096V23H68.5187V22.172C68.2707 22.476 67.9627 22.704 67.5947 22.856C67.2347 23.008 66.8347 23.084 66.3947 23.084C65.7787 23.084 65.2227 22.948 64.7267 22.676C64.2387 22.404 63.8547 22.02 63.5747 21.524C63.2947 21.02 63.1547 20.444 63.1547 19.796C63.1547 19.148 63.2947 18.576 63.5747 18.08C63.8547 17.584 64.2387 17.2 64.7267 16.928C65.2227 16.656 65.7787 16.52 66.3947 16.52C66.8187 16.52 67.2067 16.592 67.5587 16.736C67.9107 16.88 68.2107 17.096 68.4587 17.384V14.096H69.9587ZM66.5747 21.8C66.9347 21.8 67.2587 21.72 67.5467 21.56C67.8347 21.392 68.0627 21.156 68.2307 20.852C68.3987 20.548 68.4827 20.196 68.4827 19.796C68.4827 19.396 68.3987 19.044 68.2307 18.74C68.0627 18.436 67.8347 18.204 67.5467 18.044C67.2587 17.876 66.9347 17.792 66.5747 17.792C66.2147 17.792 65.8907 17.876 65.6027 18.044C65.3147 18.204 65.0867 18.436 64.9187 18.74C64.7507 19.044 64.6667 19.396 64.6667 19.796C64.6667 20.196 64.7507 20.548 64.9187 20.852C65.0867 21.156 65.3147 21.392 65.6027 21.56C65.8907 21.72 66.2147 21.8 66.5747 21.8ZM78.185 19.832C78.185 19.936 78.177 20.084 78.161 20.276H73.133C73.221 20.748 73.449 21.124 73.817 21.404C74.193 21.676 74.657 21.812 75.209 21.812C75.913 21.812 76.493 21.58 76.949 21.116L77.753 22.04C77.465 22.384 77.101 22.644 76.661 22.82C76.221 22.996 75.725 23.084 75.173 23.084C74.469 23.084 73.849 22.944 73.313 22.664C72.777 22.384 72.361 21.996 72.065 21.5C71.777 20.996 71.633 20.428 71.633 19.796C71.633 19.172 71.773 18.612 72.053 18.116C72.341 17.612 72.737 17.22 73.241 16.94C73.745 16.66 74.313 16.52 74.945 16.52C75.569 16.52 76.125 16.66 76.613 16.94C77.109 17.212 77.493 17.6 77.765 18.104C78.045 18.6 78.185 19.176 78.185 19.832ZM74.945 17.72C74.465 17.72 74.057 17.864 73.721 18.152C73.393 18.432 73.193 18.808 73.121 19.28H76.757C76.693 18.816 76.497 18.44 76.169 18.152C75.841 17.864 75.433 17.72 74.945 17.72ZM81.8459 23.084C81.3259 23.084 80.8179 23.016 80.3219 22.88C79.8259 22.744 79.4299 22.572 79.1339 22.364L79.7099 21.224C79.9979 21.416 80.3419 21.572 80.7419 21.692C81.1499 21.804 81.5499 21.86 81.9419 21.86C82.8379 21.86 83.2859 21.624 83.2859 21.152C83.2859 20.928 83.1699 20.772 82.9379 20.684C82.7139 20.596 82.3499 20.512 81.8459 20.432C81.3179 20.352 80.8859 20.26 80.5499 20.156C80.2219 20.052 79.9339 19.872 79.6859 19.616C79.4459 19.352 79.3259 18.988 79.3259 18.524C79.3259 17.916 79.5779 17.432 80.0819 17.072C80.5939 16.704 81.2819 16.52 82.1459 16.52C82.5859 16.52 83.0259 16.572 83.4659 16.676C83.9059 16.772 84.2659 16.904 84.5459 17.072L83.9699 18.212C83.4259 17.892 82.8139 17.732 82.1339 17.732C81.6939 17.732 81.3579 17.8 81.1259 17.936C80.9019 18.064 80.7899 18.236 80.7899 18.452C80.7899 18.692 80.9099 18.864 81.1499 18.968C81.3979 19.064 81.7779 19.156 82.2899 19.244C82.8019 19.324 83.2219 19.416 83.5499 19.52C83.8779 19.624 84.1579 19.8 84.3899 20.048C84.6299 20.296 84.7499 20.648 84.7499 21.104C84.7499 21.704 84.4899 22.184 83.9699 22.544C83.4499 22.904 82.7419 23.084 81.8459 23.084ZM87.9857 15.908V18.464H92.0417V19.784H87.9857V23H86.4257V14.6H92.5577V15.908H87.9857ZM96.8665 23.084C96.2185 23.084 95.6345 22.944 95.1145 22.664C94.5945 22.384 94.1865 21.996 93.8905 21.5C93.6025 20.996 93.4585 20.428 93.4585 19.796C93.4585 19.164 93.6025 18.6 93.8905 18.104C94.1865 17.608 94.5945 17.22 95.1145 16.94C95.6345 16.66 96.2185 16.52 96.8665 16.52C97.5225 16.52 98.1105 16.66 98.6305 16.94C99.1505 17.22 99.5545 17.608 99.8425 18.104C100.138 18.6 100.286 19.164 100.286 19.796C100.286 20.428 100.138 20.996 99.8425 21.5C99.5545 21.996 99.1505 22.384 98.6305 22.664C98.1105 22.944 97.5225 23.084 96.8665 23.084ZM96.8665 21.8C97.4185 21.8 97.8745 21.616 98.2345 21.248C98.5945 20.88 98.7745 20.396 98.7745 19.796C98.7745 19.196 98.5945 18.712 98.2345 18.344C97.8745 17.976 97.4185 17.792 96.8665 17.792C96.3145 17.792 95.8585 17.976 95.4985 18.344C95.1465 18.712 94.9705 19.196 94.9705 19.796C94.9705 20.396 95.1465 20.88 95.4985 21.248C95.8585 21.616 96.3145 21.8 96.8665 21.8ZM103.389 17.528C103.821 16.856 104.581 16.52 105.669 16.52V17.948C105.541 17.924 105.425 17.912 105.321 17.912C104.737 17.912 104.281 18.084 103.953 18.428C103.625 18.764 103.461 19.252 103.461 19.892V23H101.961V16.592H103.389V17.528ZM113.399 14.096V23H111.959V22.172C111.711 22.476 111.403 22.704 111.035 22.856C110.675 23.008 110.275 23.084 109.835 23.084C109.219 23.084 108.663 22.948 108.167 22.676C107.679 22.404 107.295 22.02 107.015 21.524C106.735 21.02 106.595 20.444 106.595 19.796C106.595 19.148 106.735 18.576 107.015 18.08C107.295 17.584 107.679 17.2 108.167 16.928C108.663 16.656 109.219 16.52 109.835 16.52C110.259 16.52 110.647 16.592 110.999 16.736C111.351 16.88 111.651 17.096 111.899 17.384V14.096H113.399ZM110.015 21.8C110.375 21.8 110.699 21.72 110.987 21.56C111.275 21.392 111.503 21.156 111.671 20.852C111.839 20.548 111.923 20.196 111.923 19.796C111.923 19.396 111.839 19.044 111.671 18.74C111.503 18.436 111.275 18.204 110.987 18.044C110.699 17.876 110.375 17.792 110.015 17.792C109.655 17.792 109.331 17.876 109.043 18.044C108.755 18.204 108.527 18.436 108.359 18.74C108.191 19.044 108.107 19.396 108.107 19.796C108.107 20.196 108.191 20.548 108.359 20.852C108.527 21.156 108.755 21.392 109.043 21.56C109.331 21.72 109.655 21.8 110.015 21.8Z" fill="#1C1D5D"/>
<defs>
<linearGradient id="paint0_linear" x1="19" y1="0" x2="19" y2="38" gradientUnits="userSpaceOnUse">
<stop stop-color="#4560F5"/>
<stop offset="1" stop-color="#4560F5"/>
</linearGradient>
</defs>
</svg>
