<svg width="64" height="53" viewBox="0 0 64 53" fill="none" xmlns="http://www.w3.org/2000/svg">
<circle opacity="0.5" cx="37" cy="36" r="17" fill="#4560F5"/>
<path d="M36 29H32V30H36V29Z" fill="#1C1D5D"/>
<path d="M30 29H26V30H30V29Z" fill="#1C1D5D"/>
<path d="M24 29H20V30H24V29Z" fill="#1C1D5D"/>
<path d="M43.3489 14.8806L28.8076 0.636969C28.3947 0.228698 27.8321 -0.000718049 27.2453 1.6884e-06H27.2386C26.6557 0.00027159 26.0974 0.229778 25.6888 0.636969L10.2635 15.7421H2.20467C0.987047 15.7421 0 16.7088 0 17.9013V38.054C0 39.2465 0.987047 40.2132 2.20467 40.2132H13.0928L15.2857 42.363C15.6986 42.7713 16.2612 43.0007 16.8481 43H16.8539C17.4371 42.9998 17.9958 42.7703 18.4046 42.363L20.6019 40.2132H37.4793C38.6969 40.2132 39.684 39.2465 39.684 38.054V21.5245L43.3452 17.9387C43.7631 17.5381 43.999 16.9899 44 16.4172C44.0022 15.8402 43.7676 15.2865 43.3489 14.8806ZM34.0004 7.76021L25.8504 15.7421H19.6098L30.88 4.70421L34.0004 7.76021ZM26.7294 1.6518C27.0089 1.37137 27.4677 1.36597 27.7541 1.63983C27.7582 1.64379 27.7623 1.64775 27.7663 1.6518L29.8409 3.6865L17.5308 15.7421H12.3417L26.7294 1.6518ZM17.3639 41.3482C17.2296 41.4857 17.0438 41.5636 16.8495 41.5641C16.6526 41.5637 16.4641 41.4859 16.3263 41.3482L15.1718 40.2132H18.5236L17.3639 41.3482ZM38.2142 38.054C38.2142 38.4514 37.8852 38.7737 37.4793 38.7737H2.20467C1.79882 38.7737 1.46978 38.4514 1.46978 38.054V27.9776H38.2142V38.054ZM38.2142 26.5382H1.46978V22.2197H38.2142V26.5382ZM38.2142 20.7803H1.46978V17.9013C1.46978 17.5038 1.79882 17.1816 2.20467 17.1816H37.4793C37.8852 17.1816 38.2142 17.5038 38.2142 17.9013V20.7803ZM42.3097 16.9174L39.684 19.4891V17.9013C39.684 16.7088 38.6969 15.7421 37.4793 15.7421H27.9258L35.0365 8.77792L42.3068 15.8983C42.448 16.0338 42.5275 16.2193 42.5273 16.4129C42.5271 16.6029 42.4486 16.7848 42.3097 16.9174Z" fill="#1C1D5D"/>
<path d="M6.71751 37.2692C6.8216 37.1746 6.91911 37.072 7.00912 36.9626C7.95195 38.1175 9.57194 38.3369 10.7623 37.4709C11.5305 36.906 11.9916 35.9853 12 34.9995C12 33.3431 10.7231 32.0002 9.14807 32.0002C9.00654 31.9982 8.86519 32.0107 8.72598 32.0377L8.70744 32.043C8.70031 32.043 8.69318 32.043 8.68677 32.043C8.03359 32.1571 7.43958 32.5096 7.00912 33.0387C5.97886 31.7858 4.17777 31.6485 2.98647 32.732C1.79507 33.8155 1.66451 35.7097 2.69486 36.9626C3.72512 38.2155 5.52611 38.3528 6.71751 37.2692ZM8.96768 33.5156C9.02713 33.5037 9.08755 33.4985 9.14807 33.4999C9.93565 33.4999 10.574 34.1712 10.574 34.9995C10.5733 35.3168 10.475 35.6253 10.2938 35.8791C10.2682 35.9158 10.2482 35.954 10.219 35.9923C10.214 35.9983 10.2068 36.002 10.2011 36.008C9.93181 36.3208 9.5493 36.4993 9.14807 36.4992C8.36067 36.485 7.73315 35.8023 7.74661 34.9742C7.75855 34.2389 8.27564 33.6212 8.96768 33.5156ZM4.87017 33.4999C5.65775 33.4999 6.29614 34.1712 6.29614 34.9995C6.29614 35.8278 5.65775 36.4992 4.87017 36.4992C4.08259 36.4992 3.4442 35.8278 3.4442 34.9995C3.4442 34.1712 4.08259 33.4999 4.87017 33.4999Z" fill="#1C1D5D"/>
</svg>
