<svg width="24" height="24" viewBox="0 0 24 24" fill="none" xmlns="http://www.w3.org/2000/svg">
<circle cx="12" cy="12" r="12" fill="#1C1D5D"/>
<path d="M6.84549 13.1895C7.42454 14.0213 8.08991 14.7569 8.94947 15.2773C9.92288 15.8671 10.9709 16.045 12.0762 15.9908C12.5925 15.9645 12.7478 15.8218 12.7717 15.2763C12.7877 14.9026 12.8284 14.5299 13.0019 14.194C13.1725 13.8647 13.4313 13.8024 13.7298 14.0073C13.8784 14.1108 14.0036 14.2404 14.1221 14.379C14.413 14.7156 14.6947 15.0643 14.996 15.3899C15.3749 15.7989 15.8243 16.0399 16.3881 15.9908L18.5726 15.9918C18.9242 15.9665 19.1071 15.5096 18.9052 15.0923C18.7631 14.801 18.5765 14.5419 18.3794 14.2905C17.9329 13.7219 17.4069 13.2374 16.9095 12.7231C16.4612 12.2591 16.4328 11.9897 16.7929 11.4543C17.187 10.8694 17.6097 10.3077 18.0068 9.72596C18.3773 9.18247 18.7575 8.63976 18.9515 7.98977C19.0758 7.57485 18.9659 7.39204 18.5661 7.31868C18.4969 7.30665 18.4249 7.30665 18.3548 7.30665L15.9778 7.3035C15.685 7.29857 15.5239 7.43425 15.4205 7.70935C15.2802 8.08127 15.1362 8.45301 14.9692 8.81073C14.5922 9.6246 14.1703 10.4112 13.5789 11.0764C13.4482 11.2229 13.3031 11.4089 13.0853 11.3326C12.8133 11.2271 12.7328 10.751 12.7374 10.5903L12.7354 7.68134C12.6826 7.26662 12.5951 7.08066 12.2058 7H9.73686C9.40818 7 9.24226 7.13587 9.06592 7.35379C8.96547 7.48059 8.93403 7.56184 9.14274 7.60404C9.55197 7.68627 9.7843 7.96768 9.84494 8.40292C9.94259 9.09925 9.9359 9.79834 9.87916 10.4966C9.86298 10.7005 9.82987 10.9037 9.75379 11.0946C9.63456 11.3949 9.4411 11.4553 9.18813 11.2705C8.95989 11.1036 8.7988 10.8686 8.64032 10.6325C8.04806 9.74509 7.57614 8.78885 7.19035 7.78389C7.07949 7.49341 6.88715 7.3177 6.59716 7.31257C5.88436 7.30054 5.17082 7.29877 4.45709 7.31356C4.0287 7.32164 3.90073 7.54271 4.07613 7.95565C4.85236 9.78729 5.71676 11.5677 6.84549 13.1895Z" fill="white"/>
</svg>
